#!OML:ASF F:\VICON\USERDATA\INSTALL\rory3\rory3.ASF
:FULLY-SPECIFIED
:DEGREES
179
root -8.68116 18.324 7.11113 180.198 -39.9454 176.728
lowerback 8.65425 -4.44716 -2.61568
upperback 0.013718 -6.12638 3.61819
thorax -4.15061 -2.99906 5.96505
lowerneck 5.80682 -15.1558 -15.227
upperneck 30.685 -36.3307 13.5707
head 15.4541 -18.4815 2.05511
rclavicle 7.58364e-014 1.59028e-014
rhumerus -38.467 -15.5185 -75.5159
rradius 30.8808
rwrist 5.82809
rhand -15.8868 7.10209
rfingers 7.12502
rthumb 10.3094 -22.6252
lclavicle 7.58364e-014 1.59028e-014
lhumerus -27.5513 0.810927 85.451
lradius 29.651
lwrist -5.14134
lhand -19.6021 26.5175
lfingers 7.12502
lthumb 6.72396 56.3907
rfemur -10.943 -3.78491 26.9861
rtibia 32.4535
rfoot -4.48036 -0.0841068
rtoes 12.6912
lfemur 4.30739 4.15712 -16.26
ltibia 44.663
lfoot 8.42347 -15.7837
ltoes -16.0462
180
root -8.63215 18.3141 7.17573 180.18 -40.4632 176.434
lowerback 8.5536 -4.52053 -2.84147
upperback 0.0997234 -6.24739 3.58323
thorax -3.97018 -3.06263 6.04923
lowerneck 5.95125 -15.1229 -15.2721
upperneck 30.6444 -36.2022 13.5494
head 15.3838 -18.4443 2.10768
rclavicle -2.45499e-014 1.59028e-014
rhumerus -38.6841 -15.5318 -75.4345
rradius 30.7023
rwrist 6.11221
rhand -15.7043 6.66458
rfingers 7.12502
rthumb 10.4854 -23.0539
lclavicle -2.45499e-014 1.59028e-014
lhumerus -27.0648 0.596836 85.7342
lradius 29.7527
lwrist -5.17139
lhand -19.4447 26.2839
lfingers 7.12502
lthumb 6.87591 56.1522
rfemur -11.122 -3.86407 26.726
rtibia 32.6604
rfoot -4.48099 -0.341345
rtoes 13.7675
lfemur 5.47907 4.20957 -16.4625
ltibia 43.4844
lfoot 9.8076 -16.4394
ltoes -13.6302
181
root -8.58199 18.304 7.24319 180.282 -40.9733 176.037
lowerback 8.42773 -4.5856 -3.09937
upperback 0.149763 -6.35725 3.49691
thorax -3.81636 -3.11766 6.09535
lowerneck 6.0435 -15.0696 -15.3178
upperneck 30.7059 -36.1071 13.5179
head 15.3788 -18.419 2.13547
rclavicle -1.87951e-013 3.65764e-014
rhumerus -38.9804 -15.8348 -75.2597
rradius 30.3696
rwrist 6.64865
rhand -15.5057 6.56653
rfingers 7.12502
rthumb 10.6769 -23.1422
lclavicle -1.87951e-013 3.65764e-014
lhumerus -26.6218 0.275235 86.0324
lradius 29.9091
lwrist -5.17257
lhand -19.4048 26.4078
lfingers 7.12502
lthumb 6.91439 56.2749
rfemur -11.3339 -3.97404 26.3734
rtibia 32.8682
rfoot -4.44177 -0.602709
rtoes 12.8568
lfemur 6.5566 4.19916 -16.8116
ltibia 42.2394
lfoot 11.0784 -16.8549
ltoes -11.7783
182
root -8.52487 18.2907 7.31918 180.262 -41.5166 175.875
lowerback 8.4609 -4.6813 -3.22148
upperback 0.123408 -6.49628 3.51619
thorax -3.82962 -3.18355 6.20163
lowerneck 6.09481 -14.9845 -15.4187
upperneck 30.8465 -35.9221 13.3727
head 15.3805 -18.3644 2.14341
rclavicle -1.17879e-013 -2.22639e-014
rhumerus -39.3414 -15.8127 -75.1201
rradius 30.1288
rwrist 6.75937
rhand -15.1249 6.19902
rfingers 7.12502
rthumb 11.0443 -23.4904
lclavicle -1.17879e-013 -2.22639e-014
lhumerus -26.2657 -0.12984 86.3967
lradius 30.0823
lwrist -5.13203
lhand -19.3436 26.7354
lfingers 7.12502
lthumb 6.97346 56.6005
rfemur -11.581 -4.24252 26.2344
rtibia 33.0675
rfoot -4.46512 -0.826988
rtoes 11.5587
lfemur 7.54418 4.19875 -16.9887
ltibia 41.0043
lfoot 11.7819 -17.509
ltoes -12.9978
183
root -8.46514 18.281 7.39523 180.394 -42.0738 175.676
lowerback 8.33772 -4.74907 -3.35721
upperback 0.0901233 -6.59498 3.51915
thorax -3.76774 -3.23098 6.27779
lowerneck 6.25186 -14.9447 -15.4838
upperneck 30.8024 -35.7865 13.3664
head 15.3133 -18.3266 2.20516
rclavicle -1.54953e-013 1.59028e-014
rhumerus -39.6948 -15.7127 -75.0485
rradius 30.0541
rwrist 6.77134
rhand -14.8292 5.71737
rfingers 7.12502
rthumb 11.3295 -23.9566
lclavicle -1.54953e-013 1.59028e-014
lhumerus -25.8784 -0.737153 86.7793
lradius 30.3112
lwrist -4.97636
lhand -19.1589 27.0923
lfingers 7.12502
lthumb 7.15173 56.9515
rfemur -12.0245 -4.5913 26.0672
rtibia 33.2793
rfoot -4.49262 -0.95389
rtoes 11.0102
lfemur 8.3547 4.23029 -17.1818
ltibia 39.7785
lfoot 12.4889 -18.169
ltoes -14.0381
184
root -8.40727 18.2694 7.47144 180.616 -42.6425 175.402
lowerback 8.12544 -4.84345 -3.547
upperback 0.100279 -6.73311 3.5258
thorax -3.5985 -3.30253 6.37758
lowerneck 6.14239 -14.9122 -15.5458
upperneck 30.9412 -35.6559 13.2572
head 15.3575 -18.2653 2.18551
rclavicle -9.52179e-014 -6.52014e-014
rhumerus -39.8927 -15.7975 -74.901
rradius 29.9461
rwrist 7.22262
rhand -14.8503 5.74206
rfingers 7.12502
rthumb 11.3091 -23.933
lclavicle -9.52179e-014 -6.52014e-014
lhumerus -25.4836 -1.12002 87.1138
lradius 30.6728
lwrist -4.94977
lhand -19.0672 27.4696
lfingers 7.12502
lthumb 7.2403 57.3258
rfemur -12.5039 -4.76629 25.8417
rtibia 33.4719
rfoot -4.45499 -1.18913
rtoes 10.4711
lfemur 9.07213 4.10948 -17.5003
ltibia 38.554
lfoot 13.4647 -18.3177
ltoes -13.6129
185
root -8.34792 18.2551 7.54993 180.867 -43.202 175
lowerback 8.02396 -4.94843 -3.82579
upperback 0.10981 -6.89537 3.50096
thorax -3.48112 -3.38264 6.50718
lowerneck 5.85238 -14.823 -15.6969
upperneck 31.4127 -35.5923 13.037
head 15.6048 -18.233 2.07733
rclavicle 3.99557e-014 -3.18055e-015
rhumerus -40.0232 -15.9401 -74.6858
rradius 29.7831
rwrist 7.87155
rhand -14.7509 5.8263
rfingers 7.12502
rthumb 11.405 -23.8435
lclavicle 3.99557e-014 -3.18055e-015
lhumerus -25.0866 -1.38499 87.3733
lradius 30.9715
lwrist -4.98252
lhand -19.1389 27.3278
lfingers 7.12502
lthumb 7.1711 57.1863
rfemur -12.9177 -4.90995 25.5253
rtibia 33.6973
rfoot -4.42151 -1.49858
rtoes 8.89414
lfemur 9.85388 3.87189 -17.9915
ltibia 37.2187
lfoot 14.5122 -18.0128
ltoes -13.7273
186
root -8.28511 18.2456 7.62611 180.905 -43.7604 174.863
lowerback 7.94341 -5.03858 -3.92536
upperback 0.136009 -7.02288 3.48812
thorax -3.3813 -3.449 6.54754
lowerneck 5.6917 -14.7423 -15.8227
upperneck 31.8133 -35.615 12.9182
head 15.8378 -18.2445 1.99946
rclavicle 2.21645e-014 1.59028e-015
rhumerus -40.2151 -16.0109 -74.6168
rradius 29.6624
rwrist 8.14757
rhand -14.6735 5.97856
rfingers 7.12502
rthumb 11.4797 -23.6871
lclavicle 2.21645e-014 1.59028e-015
lhumerus -24.6837 -1.81329 87.6301
lradius 31.2469
lwrist -4.93008
lhand -18.9046 26.5678
lfingers 7.12502
lthumb 7.39723 56.4184
rfemur -13.3084 -4.96104 25.4296
rtibia 33.909
rfoot -4.34673 -1.88427
rtoes 7.75499
lfemur 10.6604 3.64083 -18.2445
ltibia 35.7866
lfoot 15.5269 -17.6004
ltoes -14.4906
187
root -8.2222 18.2395 7.69792 181.003 -44.2924 174.708
lowerback 7.80837 -5.12042 -4.062
upperback 0.139676 -7.13967 3.4689
thorax -3.2721 -3.50888 6.59569
lowerneck 5.70487 -14.7395 -15.7113
upperneck 31.8412 -35.4944 12.811
head 15.7696 -18.1895 1.98746
rclavicle -1.40143e-014 -3.18055e-014
rhumerus -40.4492 -16.0781 -74.5937
rradius 29.5506
rwrist 8.16858
rhand -14.9679 6.28576
rfingers 7.12502
rthumb 11.1957 -23.3955
lclavicle -1.40143e-014 -3.18055e-014
lhumerus -24.2966 -2.30489 87.8924
lradius 31.5358
lwrist -4.80284
lhand -18.0965 25.9877
lfingers 7.12502
lthumb 8.17722 55.8095
rfemur -13.7259 -4.82952 25.2985
rtibia 34.0867
rfoot -4.40701 -2.36941
rtoes 8.65342
lfemur 11.4218 3.41751 -18.5208
ltibia 34.2958
lfoot 16.5981 -17.0904
ltoes -15.0661
188
root -8.15659 18.226 7.77547 181.148 -44.8705 174.434
lowerback 7.79299 -5.22459 -4.30282
upperback 0.12495 -7.29848 3.46308
thorax -3.22782 -3.5854 6.7336
lowerneck 5.84264 -14.7052 -15.7138
upperneck 31.6916 -35.3219 12.8618
head 15.6463 -18.1263 2.07511
rclavicle -5.17834e-014 -3.97569e-014
rhumerus -40.6503 -16.0304 -74.5244
rradius 29.4981
rwrist 8.13173
rhand -14.9647 6.50684
rfingers 7.12502
rthumb 11.1988 -23.1743
lclavicle -5.17834e-014 -3.97569e-014
lhumerus -23.9945 -2.58521 88.1359
lradius 31.97
lwrist -4.80588
lhand -17.8802 26.7904
lfingers 7.12502
lthumb 8.38594 56.6039
rfemur -14.0956 -4.82872 25.0691
rtibia 34.2378
rfoot -4.49543 -2.8133
rtoes 9.30601
lfemur 12.2133 3.08212 -18.9229
ltibia 32.7699
lfoot 17.9275 -16.2226
ltoes -14.9659
189
root -8.09021 18.2125 7.85966 181.309 -45.4848 174.134
lowerback 7.83029 -5.32466 -4.49553
upperback 0.121661 -7.44991 3.44819
thorax -3.20806 -3.65845 6.83992
lowerneck 5.74584 -14.7076 -15.7713
upperneck 31.8311 -35.2414 12.7199
head 15.6904 -18.089 2.03294
rclavicle 3.97569e-014 -1.11319e-014
rhumerus -40.8353 -16.1562 -74.3867
rradius 29.491
rwrist 8.17645
rhand -14.6458 6.44455
rfingers 7.12502
rthumb 11.5063 -23.2196
lclavicle 3.97569e-014 -1.11319e-014
lhumerus -23.6725 -2.84246 88.3586
lradius 32.432
lwrist -5.02321
lhand -18.2347 28.4089
lfingers 7.12502
lthumb 8.04386 58.2359
rfemur -14.4874 -5.06628 24.8201
rtibia 34.4025
rfoot -4.45403 -3.12927
rtoes 8.95881
lfemur 12.9521 2.6191 -19.3804
ltibia 31.2155
lfoot 19.3938 -15.0347
ltoes -13.9428
190
root -8.02146 18.1994 7.94877 181.415 -46.0558 173.987
lowerback 7.84238 -5.4075 -4.56269
upperback 0.11471 -7.56664 3.46321
thorax -3.19435 -3.71621 6.90281
lowerneck 5.59571 -14.7419 -15.7418
upperneck 31.9865 -35.1544 12.504
head 15.7119 -18.0383 1.95318
rclavicle -3.40916e-014 5.08889e-014
rhumerus -40.997 -16.3876 -74.2202
rradius 29.4277
rwrist 8.35155
rhand -14.6861 6.46733
rfingers 7.12502
rthumb 11.4675 -23.199
lclavicle -3.40916e-014 5.08889e-014
lhumerus -23.3374 -3.3385 88.6235
lradius 32.8105
lwrist -4.86639
lhand -18.9458 28.8113
lfingers 7.12502
lthumb 7.35751 58.6634
rfemur -14.9407 -5.2193 24.6995
rtibia 34.5663
rfoot -4.32146 -3.35478
rtoes 8.23375
lfemur 13.5891 2.09445 -19.765
ltibia 29.644
lfoot 20.8243 -13.5474
ltoes -11.1415
191
root -7.95021 18.1824 8.03771 181.612 -46.5919 173.795
lowerback 7.7823 -5.50169 -4.71877
upperback 0.0838054 -7.7028 3.48454
thorax -3.14978 -3.78271 7.01543
lowerneck 5.72331 -14.7429 -15.7513
upperneck 31.8641 -35.0611 12.528
head 15.6151 -18.006 2.00999
rclavicle -4.72114e-014 -4.77083e-015
rhumerus -41.1107 -16.3576 -74.1702
rradius 29.3552
rwrist 8.26024
rhand -15.1035 6.61886
rfingers 7.12502
rthumb 11.0649 -23.0695
lclavicle -4.72114e-014 -4.77083e-015
lhumerus -23.049 -3.81728 88.8699
lradius 33.2031
lwrist -4.4573
lhand -19.551 28.8368
lfingers 7.12502
lthumb 6.77326 58.7085
rfemur -15.4526 -5.24015 24.5518
rtibia 34.7181
rfoot -4.13216 -3.50791
rtoes 7.72448
lfemur 14.1656 1.5673 -20.1884
ltibia 28.0299
lfoot 22.3364 -12.0328
ltoes -5.40609
192
root -7.87636 18.1666 8.12784 181.771 -47.1545 173.586
lowerback 7.80136 -5.57178 -4.89745
upperback 0.0758427 -7.81237 3.50409
thorax -3.12583 -3.83567 7.14479
lowerneck 5.79978 -14.7524 -15.8743
upperneck 31.7767 -35.0632 12.6477
head 15.617 -18.0097 2.07402
rclavicle 2.09718e-014 -2.70347e-014
rhumerus -41.2725 -16.5157 -74.0253
rradius 29.4227
rwrist 8.2528
rhand -15.1163 6.49241
rfingers 7.12502
rthumb 11.0526 -23.1966
lclavicle 2.09718e-014 -2.70347e-014
lhumerus -22.6771 -3.97905 89.0429
lradius 33.6647
lwrist -4.89336
lhand -18.0522 29.6113
lfingers 7.12502
lthumb 8.21998 59.4314
rfemur -15.9346 -5.32207 24.3863
rtibia 34.8465
rfoot -3.88258 -3.7007
rtoes 7.0974
lfemur 14.7862 1.03049 -20.5971
ltibia 26.3797
lfoot 23.1464 -11.6031
ltoes 0.218627
193
root -7.80114 18.1525 8.22232 181.903 -47.7008 173.445
lowerback 7.81685 -5.64141 -4.96997
upperback 0.0801191 -7.91217 3.49194
thorax -3.10661 -3.8852 7.17996
lowerneck 5.84549 -14.7589 -15.8899
upperneck 31.6851 -35.032 12.7594
head 15.5909 -17.9884 2.13141
rclavicle 2.41523e-014 -4.45278e-014
rhumerus -41.3646 -16.7452 -73.9196
rradius 29.4452
rwrist 8.23835
rhand -14.8201 6.34914
rfingers 7.12502
rthumb 11.3382 -23.3244
lclavicle 2.41523e-014 -4.45278e-014
lhumerus -22.2964 -4.35257 89.195
lradius 34.0873
lwrist -4.79401
lhand -16.976 28.9131
lfingers 7.12502
lthumb 9.25847 58.6898
rfemur -16.4388 -5.35827 24.2571
rtibia 34.9703
rfoot -3.82461 -4.05938
rtoes 7.32512
lfemur 15.3098 0.433995 -20.994
ltibia 24.7178
lfoot 23.1668 -11.8447
ltoes 2.78646
